<svg xmlns="http://www.w3.org/2000/svg" id="correo-electronico" width="230.606" height="169.351" viewBox="0 0 230.606 169.351"><g id="Group_6751" data-name="Group 6751" transform="translate(0 0)"><g id="Group_6750" data-name="Group 6750" transform="translate(0 0)"><path id="Path_8957" data-name="Path 8957" d="M203.582,68H27.024A27.055,27.055,0,0,0,0,95.024v115.3a27.055,27.055,0,0,0,27.024,27.024H203.582a27.055,27.055,0,0,0,27.024-27.024V95.024A27.055,27.055,0,0,0,203.582,68Zm9.008,142.327a9.018,9.018,0,0,1-9.008,9.008H27.024a9.018,9.018,0,0,1-9.008-9.008V95.024a9.018,9.018,0,0,1,9.008-9.008H203.582a9.018,9.018,0,0,1,9.008,9.008Z" transform="translate(0 -68)" fill="#efbd40"></path></g></g><g id="Group_6753" data-name="Group 6753" transform="translate(8.793 11.232)"><g id="Group_6752" data-name="Group 6752" transform="translate(0 0)"><path id="Path_8958" data-name="Path 8958" d="M221.79,92.937l-95.758,71.225L30.275,92.937,19.522,107.393l106.511,79.223,106.51-79.223Z" transform="translate(-19.522 -92.937)" fill="#efbd40"></path></g></g></svg>