<svg xmlns="http://www.w3.org/2000/svg" xmlns:xlink="http://www.w3.org/1999/xlink" width="208" height="177" viewBox="0 0 208 177"><defs><clipPath id="clip-path"><rect id="Rectangle_2315" data-name="Rectangle 2315" width="208" height="177" transform="translate(12381 1487)" fill="#fff" stroke="#707070" stroke-width="1"></rect></clipPath></defs><g id="Mask_Group_3" data-name="Mask Group 3" transform="translate(-12381 -1487)" clip-path="url(#clip-path)"><path id="Right" d="M223.715,0C100.361,0,0,100.361,0,223.715S100.361,447.43,223.715,447.43,447.43,347.07,447.43,223.715,347.07,0,223.715,0Zm0,419.466c-107.939,0-195.751-87.812-195.751-195.751S115.776,27.964,223.715,27.964s195.751,87.812,195.751,195.751S331.654,419.466,223.715,419.466ZM317.494,213.83a13.973,13.973,0,0,1,0,19.771l-69.911,69.911a13.98,13.98,0,1,1-19.771-19.771L273.855,237.7H139.822a13.982,13.982,0,1,1,0-27.964H273.855L227.812,163.69a13.98,13.98,0,0,1,19.771-19.771Z" transform="translate(12259.391 1350.179)" fill="#fff"></path></g></svg>