<svg xmlns="http://www.w3.org/2000/svg" width="120" height="120" viewBox="0 0 120 120"><g id="Group_6803" data-name="Group 6803" transform="translate(-892 -1322)"><circle id="Ellipse_30" data-name="Ellipse 30" cx="60" cy="60" r="60" transform="translate(892 1322)"></circle><g id="XMLID_1088_" transform="translate(918 1342.768)"><g id="XMLID_78_" transform="translate(0 6.033)"><path id="XMLID_89_" d="M24.584,203.854H16.36l3.845-6.66,3.715,2.145a1.328,1.328,0,0,0,1.947-1.494l-4.14-15.451a1.328,1.328,0,0,0-1.627-.939l-15.451,4.14a1.328,1.328,0,0,0-.32,2.433l3.443,1.988L.847,202.011a6.361,6.361,0,0,0,0,6.344l3.859,6.684A6.361,6.361,0,0,0,10.2,218.21H24.584a1.328,1.328,0,0,0,1.328-1.328v-11.7a1.328,1.328,0,0,0-1.328-1.328ZM3.148,207.026a3.7,3.7,0,0,1,0-3.687l7.589-13.145a1.328,1.328,0,0,0-.486-1.814l-1.816-1.049,11.071-2.966,2.966,11.071-2.089-1.206a1.328,1.328,0,0,0-1.814.486L7.331,214.179a3.643,3.643,0,0,1-.324-.469Zm20.108,8.528H10.2a3.668,3.668,0,0,1-.568-.046l5.195-9h8.43Z" transform="translate(0 -158.115)" fill="#fff"></path><path id="XMLID_774_" d="M262.9,258.36,255.71,245.9a1.328,1.328,0,0,0-1.814-.486l-10.132,5.85a1.328,1.328,0,0,0-.486,1.814l4.112,7.122H239.7v-4.29a1.328,1.328,0,0,0-2.267-.939l-11.311,11.311a1.328,1.328,0,0,0,0,1.878l11.311,11.311a1.328,1.328,0,0,0,2.267-.939v-3.976h13.85a6.361,6.361,0,0,0,5.494-3.172L262.9,264.7A6.361,6.361,0,0,0,262.9,258.36ZM246.242,252.9l7.832-4.522,6.528,11.307a3.659,3.659,0,0,1,.244.515H250.457Zm10.5,17.156a3.7,3.7,0,0,1-3.193,1.843H238.371a1.328,1.328,0,0,0-1.328,1.328v2.1l-8.1-8.1,8.1-8.1v2.411a1.328,1.328,0,0,0,1.328,1.328h22.475a3.643,3.643,0,0,1-.244.516Z" transform="translate(-195.75 -213.467)" fill="#fff"></path><path id="XMLID_853_" d="M149.191,28.84l4.112-7.123,3.845,6.66-3.715,2.145a1.328,1.328,0,0,0,.32,2.433L169.2,37.1a1.327,1.327,0,0,0,1.627-.939l4.14-15.451a1.328,1.328,0,0,0-1.947-1.494L169.581,21.2l-1.219-2.112a1.328,1.328,0,1,0-2.3,1.328l1.883,3.262a1.328,1.328,0,0,0,1.814.486l1.817-1.049L168.61,34.186,157.539,31.22l2.088-1.206a1.328,1.328,0,0,0,.486-1.814L148.876,8.736a3.66,3.66,0,0,1,.569-.046h7.718a3.7,3.7,0,0,1,2.975,1.51,1.328,1.328,0,0,0,2.144-1.568,6.364,6.364,0,0,0-5.12-2.6h-7.718A6.361,6.361,0,0,0,143.951,9.2l-7.192,12.457a1.328,1.328,0,0,0,.486,1.814l10.132,5.85a1.329,1.329,0,0,0,1.815-.486Zm-1.636-2.478-7.832-4.522,6.528-11.307a3.658,3.658,0,0,1,.324-.469l5.195,9Z" transform="translate(-118.439 -6.033)" fill="#fff"></path><path id="XMLID_854_" d="M336.027,63.005a1.329,1.329,0,1,0-.939-.389A1.336,1.336,0,0,0,336.027,63.005Z" transform="translate(-290.243 -53.135)" fill="#fff"></path></g></g></g></svg>