<svg xmlns="http://www.w3.org/2000/svg" width="120" height="120" viewBox="0 0 120 120"><g id="Group_6802" data-name="Group 6802" transform="translate(-1456 -1322)"><circle id="Ellipse_31" data-name="Ellipse 31" cx="60" cy="60" r="60" transform="translate(1456 1322)" fill="#3875b5"></circle><g id="Group_6801" data-name="Group 6801" transform="translate(1473.231 1339.073)"><g id="Group_6800" data-name="Group 6800" transform="translate(0 0)"><path id="Path_8968" data-name="Path 8968" d="M124.554,134.981a1.671,1.671,0,0,0,2.363,0l8.062-8.062a1.671,1.671,0,0,0,0-2.363l-2.327-2.327a25.2,25.2,0,0,0,1.9-4.575h3.289a1.671,1.671,0,0,0,1.671-1.671v-11.4a1.671,1.671,0,0,0-1.671-1.671h-3.289a25.2,25.2,0,0,0-1.9-4.575l2.327-2.327a1.671,1.671,0,0,0,0-2.363l-8.062-8.062a1.671,1.671,0,0,0-2.363,0l-2.327,2.327a25.183,25.183,0,0,0-4.575-1.9v-3.29a1.671,1.671,0,0,0-1.671-1.671h-11.4a1.671,1.671,0,0,0-1.671,1.671v3.29a25.186,25.186,0,0,0-4.575,1.9l-2.327-2.327a1.671,1.671,0,0,0-2.363,0l-8.062,8.062a1.671,1.671,0,0,0,0,2.363l2.327,2.327a25.187,25.187,0,0,0-1.9,4.575h-3.29a1.671,1.671,0,0,0-1.671,1.671v11.4a1.671,1.671,0,0,0,1.671,1.671h3.29a25.178,25.178,0,0,0,1.9,4.575l-2.327,2.327a1.671,1.671,0,0,0,0,2.363l8.062,8.062a1.671,1.671,0,0,0,2.363,0l2.327-2.327a25.17,25.17,0,0,0,4.575,1.9v3.29a1.671,1.671,0,0,0,1.671,1.671h11.4a1.671,1.671,0,0,0,1.671-1.671v-3.29a25.193,25.193,0,0,0,4.575-1.9Zm-8.973-3.325a1.671,1.671,0,0,0-1.27,1.622v2.892H106.25v-2.892a1.671,1.671,0,0,0-1.27-1.622,21.863,21.863,0,0,1-6.064-2.513,1.671,1.671,0,0,0-2.045.249l-2.045,2.045-5.7-5.7,2.046-2.046a1.671,1.671,0,0,0,.249-2.045,21.86,21.86,0,0,1-2.513-6.064,1.671,1.671,0,0,0-1.622-1.27H84.393v-8.061h2.892a1.671,1.671,0,0,0,1.622-1.27,21.86,21.86,0,0,1,2.513-6.064,1.671,1.671,0,0,0-.249-2.045l-2.046-2.046,5.7-5.7,2.045,2.045a1.67,1.67,0,0,0,2.045.249,21.866,21.866,0,0,1,6.064-2.513,1.671,1.671,0,0,0,1.27-1.622V84.4h8.061v2.892a1.671,1.671,0,0,0,1.27,1.622,21.859,21.859,0,0,1,6.064,2.513,1.671,1.671,0,0,0,2.045-.249l2.045-2.046,5.7,5.7-2.045,2.046a1.671,1.671,0,0,0-.249,2.045,21.869,21.869,0,0,1,2.513,6.064,1.671,1.671,0,0,0,1.622,1.27h2.892v8.061h-2.892a1.671,1.671,0,0,0-1.622,1.27,21.869,21.869,0,0,1-2.513,6.064,1.671,1.671,0,0,0,.249,2.045l2.045,2.046-5.7,5.7-2.045-2.046a1.671,1.671,0,0,0-2.045-.249A21.844,21.844,0,0,1,115.581,131.656Z" transform="translate(-67.511 -67.514)" fill="#fff"></path><path id="Path_8969" data-name="Path 8969" d="M199.036,182.3V167.722a1.67,1.67,0,0,0-.835-1.447l-12.622-7.287a1.671,1.671,0,0,0-1.671,0l-12.622,7.287a1.67,1.67,0,0,0-.835,1.447V182.3a1.671,1.671,0,0,0,.835,1.447l12.622,7.287a1.67,1.67,0,0,0,1.671,0l12.622-7.287A1.67,1.67,0,0,0,199.036,182.3Zm-14.293-19.933,9.281,5.358-9.281,5.358-9.281-5.358Zm-10.951,8.252,9.281,5.358V186.69l-9.281-5.358Zm12.622,16.075V175.973l9.281-5.358v10.717Z" transform="translate(-141.974 -132.24)" fill="#fff"></path><path id="Path_8970" data-name="Path 8970" d="M247.673,4.872a39.086,39.086,0,0,1,19,4.928A1.671,1.671,0,0,0,268.3,6.882a42.434,42.434,0,0,0-20.632-5.351,1.671,1.671,0,1,0,0,3.341Z" transform="translate(-204.903 -1.275)" fill="#fff"></path><path id="Path_8971" data-name="Path 8971" d="M445.422,100.525a1.669,1.669,0,0,0-2.016,1.156,42.887,42.887,0,0,0-6.874-11.562,1.671,1.671,0,1,0-2.566,2.14,39.548,39.548,0,0,1,6.661,11.495l-.9-.592a1.671,1.671,0,0,0-1.834,2.794l4.786,3.141a1.671,1.671,0,0,0,2.536-.984l1.415-5.556A1.67,1.67,0,0,0,445.422,100.525Z" transform="translate(-361.142 -74.563)" fill="#fff"></path><path id="Path_8972" data-name="Path 8972" d="M42.769,334.868a38.67,38.67,0,0,1-24.335-8.5A39.591,39.591,0,0,1,6.056,309.276l.9.591a1.671,1.671,0,0,0,1.833-2.794L4,303.931a1.671,1.671,0,0,0-2.536.984L.051,310.472a1.67,1.67,0,0,0,3.223.875,42.956,42.956,0,0,0,13.077,17.629,41.978,41.978,0,0,0,26.417,9.233,1.671,1.671,0,0,0,0-3.341Z" transform="translate(0.001 -252.927)" fill="#fff"></path><path id="Path_8973" data-name="Path 8973" d="M336.539,246a1.671,1.671,0,0,0-1.671,1.671,38.67,38.67,0,0,1-8.5,24.335,39.591,39.591,0,0,1-17.088,12.378l.591-.9a1.671,1.671,0,1,0-2.793-1.833l-3.141,4.786a1.671,1.671,0,0,0,.984,2.536l5.557,1.415a1.67,1.67,0,0,0,.875-3.222,42.954,42.954,0,0,0,17.629-13.077,41.979,41.979,0,0,0,9.233-26.417A1.671,1.671,0,0,0,336.539,246Z" transform="translate(-252.926 -204.903)" fill="#fff"></path><path id="Path_8974" data-name="Path 8974" d="M3.2,44.44a1.671,1.671,0,0,0,1.671-1.671,38.67,38.67,0,0,1,8.5-24.335A39.591,39.591,0,0,1,30.465,6.056l-.591.9A1.671,1.671,0,1,0,32.668,8.79L35.809,4a1.671,1.671,0,0,0-.984-2.536L29.268.052a1.67,1.67,0,0,0-.875,3.222,42.954,42.954,0,0,0-17.63,13.078A41.979,41.979,0,0,0,1.531,42.769,1.671,1.671,0,0,0,3.2,44.44Z" transform="translate(-1.275 0)" fill="#fff"></path><circle id="Ellipse_28" data-name="Ellipse 28" cx="1.671" cy="1.671" r="1.671" transform="translate(67.126 9.634)" fill="#fff"></circle></g></g></g></svg>