<svg xmlns="http://www.w3.org/2000/svg" width="117" height="113.177" viewBox="0 0 117 113.177"><g id="Group_21" data-name="Group 21" transform="translate(0.029 -0.9)"><g id="Group_20" data-name="Group 20" transform="translate(-0.029 0.9)"><g id="Group_8" data-name="Group 8" transform="translate(16.939 51.459)"><path id="Path_13" data-name="Path 13" d="M13.5,42.317a1.916,1.916,0,0,1-1.82-1.456L9.316,31.4a1.871,1.871,0,0,1,1.274-2.183,1.871,1.871,0,0,1,2.183,1.274l2.365,9.462a1.871,1.871,0,0,1-1.274,2.183C13.865,42.317,13.683,42.317,13.5,42.317Z" transform="translate(-9.281 -29.181)" fill="#fff"></path></g><g id="Group_9" data-name="Group 9" transform="translate(0 48.852)"><path id="Path_14" data-name="Path 14" d="M16.217,43.491H8.029A8.279,8.279,0,0,1,1.3,40.034,7.368,7.368,0,0,1,.387,33.3c1.638-4.185,6.368-6,14.375-5.459A6.438,6.438,0,0,1,20.221,31.3a3.92,3.92,0,0,1,.182,4c-1.092,2-3.821,2.911-8.734,3.093a1.823,1.823,0,0,1-1.82-1.82,1.719,1.719,0,0,1,1.82-1.82c4.731-.182,5.459-1.092,5.641-1.274a1.408,1.408,0,0,0-.182-.546,2.9,2.9,0,0,0-2.547-1.456c-4.185-.364-9.462,0-10.553,3.093a3.159,3.159,0,0,0,.546,3.275,4.75,4.75,0,0,0,3.639,1.82H16.4a1.823,1.823,0,0,1,1.82,1.82,2.151,2.151,0,0,1-2,2Z" transform="translate(0.029 -27.748)" fill="#fff"></path></g><g id="Group_10" data-name="Group 10" transform="translate(93.482 51.58)"><path id="Path_15" data-name="Path 15" d="M53.263,42.262h-.546a1.727,1.727,0,0,1-1.274-2.183l2.365-9.462a1.787,1.787,0,0,1,3.457.91L54.9,40.988C54.9,41.716,53.99,42.262,53.263,42.262Z" transform="translate(-51.347 -29.247)" fill="#fff"></path></g><g id="Group_11" data-name="Group 11" transform="translate(96.026 49.034)"><path id="Path_16" data-name="Path 16" d="M65.218,43.409H57.03a1.823,1.823,0,0,1-1.82-1.82,1.957,1.957,0,0,1,1.82-1.82h8.188a4.479,4.479,0,0,0,3.639-1.82,3.617,3.617,0,0,0,.546-3.275c-1.092-3.093-6.368-3.457-10.553-3.093A3.064,3.064,0,0,0,56.3,33.037a1.408,1.408,0,0,0-.182.546s.728,1.092,5.823,1.274a1.82,1.82,0,1,1,0,3.639C57.03,38.314,54.3,37.4,53.209,35.4a3.92,3.92,0,0,1,.182-4,6.688,6.688,0,0,1,5.459-3.457c8.006-.546,12.737,1.274,14.375,5.459a6.938,6.938,0,0,1-.91,6.732,9.989,9.989,0,0,1-7.1,3.275Z" transform="translate(-52.746 -27.848)" fill="#fff"></path></g><g id="Group_12" data-name="Group 12" transform="translate(1.004 58.145)"><path id="Path_17" data-name="Path 17" d="M8.669,53.134a1.591,1.591,0,0,1-1.638-1.092L.663,35.484a1.869,1.869,0,0,1,.91-2.365,1.928,1.928,0,0,1,2.365.546,4.2,4.2,0,0,0,3.639,2h100.44a4.2,4.2,0,0,0,3.639-2,1.732,1.732,0,0,1,2.365-.546,1.805,1.805,0,0,1,.91,2.365l-6.368,16.558a1.842,1.842,0,0,1-3.457-1.274L109.473,39.3a5.038,5.038,0,0,1-1.638.182H7.577A5.038,5.038,0,0,1,5.94,39.3l4.367,11.463a1.893,1.893,0,0,1-1.092,2.365H8.669Z" transform="translate(-0.523 -32.856)" fill="#fff"></path></g><g id="Group_13" data-name="Group 13" transform="translate(18.679 103.965)"><path id="Path_18" data-name="Path 18" d="M80.4,67.249H19.267a9.443,9.443,0,0,1-8.734-6l-.182-.728a1.842,1.842,0,0,1,3.457-1.274l.182.728a5.533,5.533,0,0,0,5.277,3.639H80.4a5.712,5.712,0,0,0,5.277-3.639l.182-.546A1.842,1.842,0,0,1,89.32,60.7l-.182.728A9.365,9.365,0,0,1,80.4,67.249Z" transform="translate(-10.237 -58.037)" fill="#fff"></path></g><g id="Group_14" data-name="Group 14" transform="translate(5.112 78.969)"><path id="Path_19" data-name="Path 19" d="M18.1,67.59c-8.552,0-14.193-6-15.284-16.194a5.328,5.328,0,0,1,1.274-4,5.181,5.181,0,0,1,5.277-1.638,8.816,8.816,0,0,0,3.093,0,21.157,21.157,0,0,0,3.275-.728,28.091,28.091,0,0,1,5.459-.728c3.639,0,6,2,6.914,6,1.274,5.823.546,10.917-1.82,14.011A10.645,10.645,0,0,1,18.1,67.59ZM8.456,49.213A1.655,1.655,0,0,0,7,49.941c-.182,0-.546.546-.364,1.092.546,4.913,2.547,12.919,11.645,12.919v0c2.365,0,4.185-.728,5.277-2.183,1.82-2.183,2.183-6.368,1.274-10.917-.546-2.911-1.82-3.093-3.275-3.093a23.385,23.385,0,0,0-4.549.728c-1.092.182-2.365.546-3.457.728a19.006,19.006,0,0,1-4.549,0H8.456Z" transform="translate(-2.781 -44.3)" fill="#fff"></path></g><g id="Group_15" data-name="Group 15" transform="translate(85.375 78.605)"><path id="Path_20" data-name="Path 20" d="M57.642,67.754a9.981,9.981,0,0,1-8.188-3.639c-2.547-3.093-3.275-8.188-1.82-14.011.91-4,3.093-6,6.914-6a32.3,32.3,0,0,1,5.459.728c1.092.182,2.183.546,3.275.728a8.682,8.682,0,0,0,3.093,0,5.91,5.91,0,0,1,5.459,1.638,4.691,4.691,0,0,1,1.274,4C71.834,61.75,66.194,67.754,57.642,67.754ZM54.367,47.921c-1.456,0-2.729.182-3.275,3.093-1.092,4.549-.546,8.734,1.274,10.917,1.092,1.456,2.911,2.183,5.277,2.183v0c9.1,0,11.1-8.188,11.645-12.919a2.121,2.121,0,0,0-.364-1.274,2.053,2.053,0,0,0-2-.546,9.58,9.58,0,0,1-4.549,0,23.4,23.4,0,0,1-3.457-.728,25.711,25.711,0,0,0-4.549-.728Z" transform="translate(-46.892 -44.1)" fill="#fff"></path></g><g id="Group_16" data-name="Group 16" transform="translate(39.354 32.57)"><path id="Path_21" data-name="Path 21" d="M40.523,43A19.026,19.026,0,0,1,21.6,24.077a27.146,27.146,0,0,1,.364-3.821,1.772,1.772,0,0,1,1.82-1.456h33.48a1.772,1.772,0,0,1,1.82,1.456,29.953,29.953,0,0,1,.364,3.821A18.909,18.909,0,0,1,40.523,43Zm-15.1-20.561c0,.546-.182,1.092-.182,1.638a15.284,15.284,0,1,0,30.569,0,5.038,5.038,0,0,0-.182-1.638Z" transform="translate(-21.6 -18.8)" fill="#fff"></path></g><g id="Group_17" data-name="Group 17" transform="translate(32.487 25.474)"><path id="Path_22" data-name="Path 22" d="M65.816,25.635H21.6A3.575,3.575,0,0,1,18.507,24a3.056,3.056,0,0,1-.364-3.275,8,8,0,0,1,2.183-3.275A8.782,8.782,0,0,1,26.695,14.9h34.39a8.8,8.8,0,0,1,8.37,6,4.088,4.088,0,0,1-.364,3.275,5.277,5.277,0,0,1-3.275,1.456Zm-39.485-7.1a5.08,5.08,0,0,0-3.639,1.456,7.514,7.514,0,0,0-1.274,2l44.215-.182a5.325,5.325,0,0,0-4.913-3.457H26.331Z" transform="translate(-17.826 -14.9)" fill="#fff"></path></g><g id="Group_18" data-name="Group 18" transform="translate(37.353 9.635)"><path id="Path_23" data-name="Path 23" d="M60.53,25.673H22.32a1.719,1.719,0,0,1-1.82-1.82v-.91A20.774,20.774,0,0,1,28.506,6.568a1.78,1.78,0,0,1,2.547.364,1.983,1.983,0,0,1-.364,2.547,16.661,16.661,0,0,0-6.55,12.737H58.711a16.313,16.313,0,0,0-5.095-11.281A10.4,10.4,0,0,0,52.16,9.661,1.957,1.957,0,0,1,51.8,7.114a1.957,1.957,0,0,1,2.547-.364,16.4,16.4,0,0,1,1.82,1.638A20.814,20.814,0,0,1,62.35,23.126v.91a1.68,1.68,0,0,1-1.82,1.638Z" transform="translate(-20.5 -6.195)" fill="#fff"></path></g><g id="Group_19" data-name="Group 19" transform="translate(51.909)"><path id="Path_24" data-name="Path 24" d="M39.417,18.732a1.719,1.719,0,0,1-1.82-1.82V7.268a2.729,2.729,0,0,0-5.459,0v9.644a1.82,1.82,0,1,1-3.639,0V7.268a6.368,6.368,0,0,1,12.737,0v9.644A1.823,1.823,0,0,1,39.417,18.732Z" transform="translate(-28.5 -0.9)" fill="#fff"></path></g></g></g></svg>