<svg xmlns="http://www.w3.org/2000/svg" width="120" height="120" viewBox="0 0 120 120"><g id="Group_6802" data-name="Group 6802" transform="translate(-1456 -1322)"><circle id="Ellipse_31" data-name="Ellipse 31" cx="60" cy="60" r="60" transform="translate(1456 1322)"></circle><path id="Path_8975" data-name="Path 8975" d="M67.379,38.63V37.543a31.5,31.5,0,0,0-24.894-30.7V5.83A4.271,4.271,0,0,0,38.22,1.564H33.78A4.271,4.271,0,0,0,29.515,5.83V6.844a31.5,31.5,0,0,0-24.894,30.7V38.63A4.792,4.792,0,0,0,1,43.271v1.316a4.79,4.79,0,0,0,4.785,4.785H19.371v2.879a14.029,14.029,0,0,0,6.058,11.815l9.93,7.137a1.1,1.1,0,0,0,1.282,0l9.929-7.137a14.029,14.029,0,0,0,6.058-11.815V49.371H66.216A4.79,4.79,0,0,0,71,44.587V43.271a4.793,4.793,0,0,0-3.621-4.641Zm-16.8-26.369L49.259,32.009a1.1,1.1,0,0,0,1.022,1.169l.074,0a1.1,1.1,0,0,0,1.095-1.025L52.689,13.6A29.161,29.161,0,0,1,65.183,37.542v.943H52.566a1.1,1.1,0,0,0-.475-.584,42.556,42.556,0,0,0-9.605-4.411V9.09a29.157,29.157,0,0,1,8.091,3.17Zm-16.8-8.5H38.22a2.072,2.072,0,0,1,2.07,2.07V32.95a21.507,21.507,0,0,0-8.579,0V5.83a2.072,2.072,0,0,1,2.07-2.07ZM19.312,13.6,20.55,32.156a1.1,1.1,0,0,0,1.095,1.025l.074,0a1.1,1.1,0,0,0,1.022-1.169L21.423,12.261A29.161,29.161,0,0,1,29.515,9.09v24.4A42.556,42.556,0,0,0,19.909,37.9a1.1,1.1,0,0,0-.475.584H6.817v-.943A29.161,29.161,0,0,1,19.312,13.6ZM5.785,47.175A2.591,2.591,0,0,1,3.2,44.587V43.271a2.591,2.591,0,0,1,2.588-2.588H19.371v6.493H5.785Zm44.648,5.076a11.912,11.912,0,0,1-5.144,10.032L36,68.959l-9.289-6.676a11.911,11.911,0,0,1-5.144-10.032V39.475c10.977-6.385,17.888-6.385,28.865,0ZM68.8,44.587a2.591,2.591,0,0,1-2.588,2.588H52.629V40.682H66.216A2.591,2.591,0,0,1,68.8,43.271Zm-45.568-3.5V52.251a10.175,10.175,0,0,0,4.449,8.677l7.674,5.516a1.1,1.1,0,0,0,1.282,0l7.674-5.516a10.175,10.175,0,0,0,4.449-8.677V41.089a1.1,1.1,0,0,0-.571-.963c-9.116-4.987-15.27-4.988-24.386,0A1.1,1.1,0,0,0,23.236,41.089Zm2.2.656c7.921-4.2,13.216-4.2,21.136,0V52.251a7.986,7.986,0,0,1-3.535,6.894L36,64.2l-7.033-5.055a7.986,7.986,0,0,1-3.535-6.894Zm7.716,14.934q.127.011.253.011a2.857,2.857,0,0,0,2.023-.839l8.512-8.512a2.866,2.866,0,0,0-4.053-4.053l-6.242,6.242L31.9,47.338A2.863,2.863,0,0,0,27.419,50.9l3.65,4.593a2.862,2.862,0,0,0,2.079,1.185ZM29,49.044a.667.667,0,0,1,.661-.591.693.693,0,0,1,.077,0,.662.662,0,0,1,.446.247l2.506,3.154a1.1,1.1,0,0,0,1.636.093l7.113-7.113a.67.67,0,1,1,.947.947L33.872,54.3a.671.671,0,0,1-1.024-.092c-.013-.019-.026-.037-.041-.054l-3.669-4.617a.662.662,0,0,1-.141-.49Z" transform="translate(1480 1345.513)" fill="#fff"></path></g></svg>