<svg xmlns="http://www.w3.org/2000/svg" width="120" height="120" viewBox="0 0 120 120"><g id="Group_6803" data-name="Group 6803" transform="translate(-892 -1322)"><circle id="Ellipse_30" data-name="Ellipse 30" cx="60" cy="60" r="60" transform="translate(892 1322)" fill="#163c62"></circle><path id="piggy-bank" d="M55.1,34.976A1.106,1.106,0,0,1,54,33.87V31.428a1.106,1.106,0,0,1,2.212,0V33.87A1.106,1.106,0,0,1,55.1,34.976ZM68.581,37.16V43.5a4.041,4.041,0,0,1-4.029,4.04H60.458a24.751,24.751,0,0,1-6.173,7.126L53.6,62.289a4.969,4.969,0,0,1-9.795.664l-.643-2.829a32.959,32.959,0,0,1-16.278,0l-.643,2.829a4.962,4.962,0,0,1-9.784-.664l-.686-7.619A22.78,22.78,0,0,1,6.824,38.143a6.011,6.011,0,0,1-1.426.174h-.15a5.342,5.342,0,0,1-3.815-1.629,5.751,5.751,0,0,1-.664-6.7A1.1,1.1,0,1,1,2.7,31.062a3.521,3.521,0,0,0,.343,4.1,3.214,3.214,0,0,0,2.261.943A4.405,4.405,0,0,0,6.853,35.8c.6-9.671,7.932-17.836,18.078-21.163a10.449,10.449,0,1,1,20.2-.014,30.392,30.392,0,0,1,5.995,2.695,12.254,12.254,0,0,1,2.025-1.147,9.82,9.82,0,0,1,5.615-.739,2.2,2.2,0,0,1,1.457,1.2c1.039,2.111-.407,6.462-1.007,8.048A21.747,21.747,0,0,1,62.87,33.12h1.682a4.041,4.041,0,0,1,4.029,4.04ZM26.788,11.987a8.218,8.218,0,0,0,3.4,6.637,28.355,28.355,0,0,1,9.683,0,8.227,8.227,0,1,0-13.082-6.638ZM66.374,37.16a1.827,1.827,0,0,0-1.822-1.822H61.927a1.115,1.115,0,0,1-1.093-.943A19.551,19.551,0,0,0,57.083,25.5a1.09,1.09,0,0,1-.129-1.093c1.1-2.593,1.779-6.312,1.243-6.858a7.838,7.838,0,0,0-4.136.632,11.11,11.11,0,0,0-2.2,1.329,1.1,1.1,0,0,1-1.265.064,27.646,27.646,0,0,0-6.247-2.888,10.519,10.519,0,0,1-1.808,2.546,25.237,25.237,0,0,1,2.789.957,1.105,1.105,0,1,1-.843,2.044,25.486,25.486,0,0,0-18.919,0,1.106,1.106,0,0,1-.847-2.044,25.051,25.051,0,0,1,2.783-.957,10.533,10.533,0,0,1-1.792-2.524c-9.76,3.145-16.7,11.09-16.7,20.377,0,6.108,3.1,11.991,8.487,16.128a1.143,1.143,0,0,1,.439.782l.718,8.1a2.757,2.757,0,0,0,5.433.364l.9-3.954a1.095,1.095,0,0,1,1.393-.814,30.831,30.831,0,0,0,17.3,0,.994.994,0,0,1,.311-.054,1.108,1.108,0,0,1,1.082.868l.9,3.954A2.73,2.73,0,0,0,48.649,64.6,2.761,2.761,0,0,0,51.4,62.1l.718-8.1a1.13,1.13,0,0,1,.429-.782,22.487,22.487,0,0,0,6.269-7.3,1.107,1.107,0,0,1,.986-.589h4.747A1.827,1.827,0,0,0,66.374,43.5V37.16ZM29.179,11.992a5.85,5.85,0,1,1,5.85,5.851A5.856,5.856,0,0,1,29.179,11.992Zm2.212,0a3.638,3.638,0,1,0,3.637-3.637A3.642,3.642,0,0,0,31.392,11.992Z" transform="translate(917.709 1347.819)" fill="#fff"></path></g></svg>