<svg xmlns="http://www.w3.org/2000/svg" width="120" height="120" viewBox="0 0 120 120"><g id="Group_6802" data-name="Group 6802" transform="translate(-1456 -1322)"><circle id="Ellipse_31" data-name="Ellipse 31" cx="60" cy="60" r="60" transform="translate(1456 1322)" fill="#163c62"></circle><path id="Path_8984" data-name="Path 8984" d="M69.978,60.656a5.43,5.43,0,0,0-7.2-2.738l-17.742,7.6a7.049,7.049,0,0,0-3.4-4.9l-.024-.014c-14.316-8.029-14.59-8.182-22.256-5.256l-7.75,2.943-.4-1.362A2.479,2.479,0,0,0,8.13,55.262L1.765,57.146A2.479,2.479,0,0,0,.1,60.221L7.17,84.087a2.477,2.477,0,0,0,3.076,1.668l6.361-1.883A2.478,2.478,0,0,0,18.279,80.8l-.674-2.273,1.59-.343c3.418-.738,5.939.642,8.607,2.1,2.315,1.268,4.859,2.661,8.137,2.661a12.866,12.866,0,0,0,3.752-.583c4.01-1.217,9.058-4.035,15.449-7.6,3.7-2.063,7.883-4.4,12.51-6.78l.014-.007a5.35,5.35,0,0,0,2.313-7.314ZM16.061,82.021,9.7,83.9a.552.552,0,0,1-.678-.364L1.949,59.675A.552.552,0,0,1,2.312,59l6.37-1.885a.535.535,0,0,1,.153-.022.546.546,0,0,1,.521.388l.682,2.3a.98.98,0,0,0,.037.126l6.354,21.44a.546.546,0,0,1-.368.678Zm50.7-15.757C62.108,68.656,57.907,71,54.2,73.072c-6.29,3.512-11.257,6.286-15.068,7.442-4.435,1.344-7.333-.243-10.4-1.924-2.862-1.567-5.821-3.188-9.942-2.3l-1.732.374-4.9-16.523,7.2-2.734.689-.262c3.538-1.351,5.153-1.967,7.542-1.388,2.551.618,6.07,2.592,13.082,6.524l.025.014a5.268,5.268,0,0,1,2.527,4.614v0a4.319,4.319,0,0,1-2.054,3.712,3.424,3.424,0,0,1-3.5-.066l-9.325-5.225a.965.965,0,0,0-.944,1.684l9.324,5.225a5.707,5.707,0,0,0,2.8.76,5.2,5.2,0,0,0,2.609-.7,6.2,6.2,0,0,0,2.978-4.715l18.432-7.891a3.667,3.667,0,0,1,3.22,6.572Zm-37.547-19.3a26.51,26.51,0,0,0,12.395,5.321l4.854,6.842a.965.965,0,0,0,1.575,0l4.854-6.842a26.512,26.512,0,0,0,12.394-5.321c3.4-2.814,5.268-6.385,5.268-10.055,0-4.3-2.476-8.324-6.973-11.318a29.725,29.725,0,0,0-16.331-4.518,29.721,29.721,0,0,0-16.33,4.518c-4.5,2.994-6.973,7.013-6.973,11.318,0,3.671,1.87,7.241,5.266,10.055Zm18.037-23.96c11.785,0,21.373,6.238,21.373,13.9,0,3.13-1.58,6.092-4.569,8.568a24.743,24.743,0,0,1-11.864,4.965.966.966,0,0,0-.639.4l-4.3,6.062-4.3-6.062a.966.966,0,0,0-.639-.4,24.741,24.741,0,0,1-11.865-4.965c-2.988-2.476-4.568-5.438-4.568-8.568C25.878,29.246,35.466,23.008,47.252,23.008Zm0,8.168a2.957,2.957,0,1,0-2.958-2.955A2.957,2.957,0,0,0,47.252,31.176Zm0-3.982a1.027,1.027,0,1,1-.727.3,1.026,1.026,0,0,1,.727-.3ZM44.145,43.42a2.574,2.574,0,1,0,0,5.147h6.214a2.574,2.574,0,0,0,0-5.147h-.535V34a2.576,2.576,0,0,0-2.571-2.575H44.145a2.574,2.574,0,1,0,0,5.147h.531V43.42Zm1.5-8.778h-1.5a.643.643,0,1,1,0-1.286h3.107a.644.644,0,0,1,.641.645V44.385a.965.965,0,0,0,.965.965h1.5a.643.643,0,1,1,0,1.286H44.145a.643.643,0,1,1,0-1.286h1.5a.965.965,0,0,0,.965-.965V35.607a.965.965,0,0,0-.965-.965Z" transform="translate(1480.708 1328.533)" fill="#fff"></path></g></svg>