<svg xmlns="http://www.w3.org/2000/svg" width="120" height="120" viewBox="0 0 120 120"><g id="Group_6813" data-name="Group 6813" transform="translate(-892 -1322)"><path id="Path_8985" data-name="Path 8985" d="M60,0A60,60,0,1,1,0,60,60,60,0,0,1,60,0Z" transform="translate(892 1322)"></path><g id="XMLID_1031_" transform="translate(909.305 1339.096)"><g id="XMLID_971_" transform="translate(0)"><g id="XMLID_977_"><path id="XMLID_1030_" d="M76.279,16.334h2.638a1.667,1.667,0,0,0,0-3.333H72.584a1.667,1.667,0,0,0-1.667,1.667V21a1.667,1.667,0,0,0,3.333,0V19.166A39.362,39.362,0,1,1,42.695,3.333a39.955,39.955,0,0,1,4.8.29A1.667,1.667,0,1,0,47.9.314,43.3,43.3,0,0,0,42.695,0a42.695,42.695,0,0,0-30.19,72.885A42.695,42.695,0,0,0,76.279,16.334Z" transform="translate(0)" fill="#fff"></path><path id="XMLID_1029_" d="M71.779,78.266a1.525,1.525,0,0,0-2.1.473,29.112,29.112,0,1,0,9.112-9.094,1.525,1.525,0,0,0,1.626,2.58,26.074,26.074,0,1,1-4.551,40.509A26.239,26.239,0,0,1,72.252,80.37,1.525,1.525,0,0,0,71.779,78.266Z" transform="translate(-51.605 -51.606)" fill="#fff"></path><path id="XMLID_1028_" d="M378.252,250.5h2.568a2.083,2.083,0,1,0,0-4.165h-2.568a2.083,2.083,0,0,0,0,4.165Z" transform="translate(-314.528 -205.691)" fill="#fff"></path><path id="XMLID_1004_" d="M103.835,248.089a2.083,2.083,0,0,0,2.083,2.083h2.568a2.083,2.083,0,0,0,0-4.165h-2.568A2.083,2.083,0,0,0,103.835,248.089Z" transform="translate(-86.82 -205.42)" fill="#fff"></path><path id="XMLID_1001_" d="M250.5,108.486v-2.568a2.083,2.083,0,0,0-4.165,0v2.568a2.083,2.083,0,0,0,4.165,0Z" transform="translate(-205.691 -86.82)" fill="#fff"></path><path id="XMLID_1415_" d="M246.006,378.252v2.568a2.083,2.083,0,1,0,4.165,0v-2.568a2.083,2.083,0,0,0-4.165,0Z" transform="translate(-205.42 -314.528)" fill="#fff"></path><path id="XMLID_996_" d="M192.528,162.274a2.083,2.083,0,1,0-2.945,2.945l7.058,7.058a7.174,7.174,0,1,0,12.652,0l14.241-14.241a2.083,2.083,0,0,0-2.945-2.945l-14.241,14.241a7.159,7.159,0,0,0-6.761,0Zm13.448,13.384a3.009,3.009,0,1,1-3.009-3.009A3.013,3.013,0,0,1,205.975,175.658Z" transform="translate(-161.341 -131.059)" fill="#fff"></path><path id="XMLID_980_" d="M121.733,121.733a2.081,2.081,0,1,0-1.472.61A2.091,2.091,0,0,0,121.733,121.733Z" transform="translate(-98.681 -98.681)" fill="#fff"></path><path id="XMLID_979_" d="M317.521,14.043a2.084,2.084,0,1,0-1.472-.61A2.091,2.091,0,0,0,317.521,14.043Z" transform="translate(-263.398 -7.821)" fill="#fff"></path></g></g></g></g></svg>