<svg xmlns="http://www.w3.org/2000/svg" width="120.319" height="124.119" viewBox="0 0 120.319 124.119"><g id="Group_6861" data-name="Group 6861" transform="translate(-2191.74 -987)"><path id="Path_8965" data-name="Path 8965" d="M21.7,66.286c0-3.269-2.178-6.158-4.842-6.143l-.832,0-.006-9.2c0-2.8-3.5-2.136-2.954.47l.006,8.725-4.244-.014L8.8,28.573a2.2,2.2,0,0,0-.2-.928L5.085,20.151l0-9.886,11.681.068,0,9.767-3.516,7.529a2.2,2.2,0,0,0-.2.927l.008,12.134c-.494,2.561,2.957,3.014,2.955.433L16,29.051l3.516-7.529a2.2,2.2,0,0,0,.2-.926l0-18.756A1.766,1.766,0,0,0,18.235,0L3.6.053A1.707,1.707,0,0,0,2.126,1.889l0,18.761a2.2,2.2,0,0,0,.2.929l3.518,7.495.021,31.033-.833,0c-5.752.021-6.485,11.075-.829,12.3L4.162,109.1c-.013,11.238,13.538,11.153,13.55.043l.048-36.8C20,71.8,21.7,69.287,21.7,66.286ZM5.082,6.585V3.729l11.68-.043V6.652Zm5.873,107.483c-2.105,0-3.841-2.395-3.838-4.964l.048-36.613,7.641-.028-.048,36.673c0,2.712-1.709,4.924-3.8,4.932Zm5.9-45.293-11.81.043c-2.389,0-2.369-5.024,0-5.032l11.818.039C19.228,63.824,19.245,68.766,16.85,68.775Z" transform="translate(2191.414 990.598)" fill="#fff"></path><path id="Path_8966" data-name="Path 8966" d="M196.695,103.239l0-8.042A42.625,42.625,0,0,0,179.88,61.4a3.768,3.768,0,0,0-4.02-.187,42.5,42.5,0,0,0-13.327-5.826,2.589,2.589,0,0,0-1.008-2.821,21.1,21.1,0,0,0-18.99.008,2.591,2.591,0,0,0-1.005,2.823,42.853,42.853,0,0,0-6.374,2.112l.183-21.415c7.616-1.838,11.638-6.626,11.66-13.924.024-8.083-4.907-17.39-11.47-21.649q-2.38-.937-2.906,1.508l-.045,15.117a1.335,1.335,0,0,1-1.332,1.343l-7.883-.038a1.351,1.351,0,0,1-1.332-1.364l.045-15.117q-.51-2.444-2.893-1.527c-6.591,4.2-11.58,13.459-11.6,21.543-.022,7.291,3.968,12.115,11.563,14.027l-.207,30.2a42.294,42.294,0,0,0-11.528,29.02l0,8.022c-7.371,2.19-5.945,13.169,1.935,13.169a33.255,33.255,0,0,1,15.482,4.11,34.722,34.722,0,0,0,15.738,3.777h.014l22.966-.009a34.725,34.725,0,0,0,15.749-3.789,32.91,32.91,0,0,1,15.476-4.123c7.773,0,9.42-11.02,1.926-13.15ZM174.288,64.576l.009,21.331a1.845,1.845,0,0,0,1.869,1.818h0a1.844,1.844,0,0,0,1.868-1.82l-.009-21.286A39.011,39.011,0,0,1,192.953,95.2l0,7.756H178.044l0-7.382a1.844,1.844,0,0,0-1.869-1.818h0a1.844,1.844,0,0,0-1.869,1.82l0,7.381H162.554l-.019-43.8a38.694,38.694,0,0,1,11.754,5.425Zm-15.494-9.251.021,47.63H145.289l-.021-47.624A17.288,17.288,0,0,1,158.794,55.325Zm-17.244,47.63H129.8l-.017-38.361a39,39,0,0,1,11.749-5.433ZM111.316,22c.017-5.6,2.925-12.048,7.008-16.145l-.033,11.225a5.045,5.045,0,0,0,5.052,5.012l7.884.038a5.16,5.16,0,0,0,5.089-4.971l.034-11.212c4.059,4.138,6.928,10.617,6.911,16.215-.018,5.959-3.328,9.451-10.119,10.676a1.833,1.833,0,0,0-1.529,1.773l-.211,24.7q-1.634.887-3.193,1.922a3.767,3.767,0,0,0-4.02.19c-.508.395-1,.8-1.491,1.215l.192-28.061a1.832,1.832,0,0,0-1.511-1.8C114.59,31.486,111.3,27.96,111.316,22ZM126.044,64.64l.017,38.315H111.148l0-7.722A39.01,39.01,0,0,1,126.044,64.64Zm71.032,47.16a3.229,3.229,0,0,1-2.308.952,37.06,37.06,0,0,0-17.216,4.542,30.876,30.876,0,0,1-14.008,3.371l-22.966.009h-.013a30.888,30.888,0,0,1-14-3.359c-5.178-2.694-11.243-4.85-17.221-4.527-4.188,0-4.107-6.193.131-6.194h85.156c2.635.153,4.5,3.135,2.445,5.207Z" transform="translate(2110.525 986.808)" fill="#fff"></path></g></svg>