<svg xmlns="http://www.w3.org/2000/svg" width="120" height="120" viewBox="0 0 120 120"><g id="Group_6813" data-name="Group 6813" transform="translate(-892 -1322)"><circle id="Ellipse_30" data-name="Ellipse 30" cx="60" cy="60" r="60" transform="translate(892 1322)" fill="#163c62"></circle><g id="Group_6815" data-name="Group 6815" transform="translate(886.504 1344.109)"><path id="Path_8976" data-name="Path 8976" d="M128.99,137.6a1.11,1.11,0,0,0-1.546.274l-3.528,5.046-2.287-2.032a1.11,1.11,0,1,0-1.475,1.659l2.433,2.163a2.046,2.046,0,0,0,3.035-.357l3.641-5.207a1.11,1.11,0,0,0-.274-1.546Z" transform="translate(-70.952 -117.065)" fill="#fff"></path><path id="Path_8977" data-name="Path 8977" d="M128.991,247.162a1.11,1.11,0,0,0-1.546.274l-3.528,5.046-2.286-2.033a1.11,1.11,0,1,0-1.475,1.659l2.434,2.163a2.046,2.046,0,0,0,3.035-.357l3.641-5.207A1.11,1.11,0,0,0,128.991,247.162Z" transform="translate(-70.953 -210.408)" fill="#fff"></path><path id="Path_8978" data-name="Path 8978" d="M128.99,355.251a1.11,1.11,0,0,0-1.546.274l-3.528,5.046-2.287-2.032a1.11,1.11,0,0,0-1.475,1.659l2.433,2.163a2.046,2.046,0,0,0,3.035-.357l3.641-5.207A1.11,1.11,0,0,0,128.99,355.251Z" transform="translate(-70.952 -302.499)" fill="#fff"></path><path id="Path_8979" data-name="Path 8979" d="M230.489,141.344H214.8a1.11,1.11,0,0,0,0,2.22h15.688a1.11,1.11,0,0,0,0-2.22Z" transform="translate(-150.961 -120.423)" fill="#fff"></path><path id="Path_8980" data-name="Path 8980" d="M230.489,174.675H214.8a1.11,1.11,0,0,0,0,2.22h15.688a1.11,1.11,0,0,0,0-2.22Z" transform="translate(-150.961 -148.821)" fill="#fff"></path><path id="Path_8981" data-name="Path 8981" d="M231.6,249.61a1.11,1.11,0,0,0-1.11-1.11H214.8a1.11,1.11,0,0,0,0,2.22h15.688A1.11,1.11,0,0,0,231.6,249.61Z" transform="translate(-150.961 -211.719)" fill="#fff"></path><path id="Path_8982" data-name="Path 8982" d="M214.8,281.831a1.11,1.11,0,1,0,0,2.22h7.844a1.11,1.11,0,1,0,0-2.22Z" transform="translate(-150.961 -240.117)" fill="#fff"></path><path id="Path_8983" data-name="Path 8983" d="M99.785,22.79a4.527,4.527,0,0,0-6.366.7L64.173,59.981c-.141.175.073-.183-3.811,7.6H44.509a.5.5,0,0,1-.5-.5V11.036h7.329v.749a2.793,2.793,0,0,0,2.789,2.789H75.341a2.793,2.793,0,0,0,2.79-2.789v-.749h7.329V28a1.11,1.11,0,1,0,2.22,0V11.036h1.733a1.333,1.333,0,0,1,1.331,1.331v9.021a1.11,1.11,0,0,0,2.22,0V12.367a3.555,3.555,0,0,0-3.551-3.551H78a4.656,4.656,0,0,0-4.513-3.538H71.346a.667.667,0,0,1-.666-.666A4.616,4.616,0,0,0,66.069,0H63.4a4.616,4.616,0,0,0-4.611,4.611.667.667,0,0,1-.666.666H55.986a4.656,4.656,0,0,0-4.513,3.538H40.055A3.555,3.555,0,0,0,36.5,12.367V72.231a3.555,3.555,0,0,0,3.551,3.551H89.413a3.555,3.555,0,0,0,3.551-3.551V43.947a1.11,1.11,0,0,0-2.22,0V72.231a1.333,1.333,0,0,1-1.331,1.331H40.055a1.333,1.333,0,0,1-1.331-1.331V12.367a1.333,1.333,0,0,1,1.331-1.331h1.734V67.077a2.723,2.723,0,0,0,2.72,2.72H59.8a2.654,2.654,0,0,0,4.3,1.674L66.163,69.8h18.8a2.723,2.723,0,0,0,2.72-2.72V50.528a1.11,1.11,0,0,0-2.22,0v16.55a.5.5,0,0,1-.5.5H68.9a28.124,28.124,0,0,0,2.34-1.932l29.246-36.49a4.534,4.534,0,0,0-.7-6.366ZM53.558,9.926A2.431,2.431,0,0,1,55.986,7.5h2.136a2.89,2.89,0,0,0,2.886-2.886A2.394,2.394,0,0,1,63.4,2.22h2.67A2.394,2.394,0,0,1,68.46,4.611,2.89,2.89,0,0,0,71.346,7.5h2.136A2.431,2.431,0,0,1,75.91,9.926v1.859a.57.57,0,0,1-.569.569H54.127a.57.57,0,0,1-.569-.569ZM62.7,69.747a.44.44,0,0,1-.671-.538l3.415-6.858,3.206,2.569Zm7.537-6.4-3.6-2.888L90.4,30.812,94,33.7Zm28.517-35.58-3.366,4.2-3.6-2.888,3.366-4.2a2.309,2.309,0,0,1,3.6,2.888Z" fill="#fff"></path></g></g></svg>