<svg xmlns="http://www.w3.org/2000/svg" width="71.307" height="103.028" viewBox="0 0 71.307 103.028"><path id="hand" d="M149.753,26.067A9.494,9.494,0,0,0,136.817,17.2l.01-5.176a9.505,9.505,0,0,0-9.5-9.527h-.14a9.441,9.441,0,0,0-5.172,1.539,9.605,9.605,0,0,0-1.043-1.241A9.442,9.442,0,0,0,114.238,0h-.172a9.52,9.52,0,0,0-9.144,6.917,9.448,9.448,0,0,0-3.8-.8h-.11a9.516,9.516,0,0,0-9.5,9.5V34.81a9.557,9.557,0,0,0-13.061,8.9V67.4a35.632,35.632,0,1,0,71.264-.048L149.7,57.227Zm-6.109,41.289a29.566,29.566,0,1,1-59.133.039V43.708a3.5,3.5,0,0,1,7,0V59.642a3.033,3.033,0,0,0,3.033,3.033,9.778,9.778,0,0,1,9.767,9.767V77.4a3.033,3.033,0,1,0,6.065,0V72.442A15.859,15.859,0,0,0,97.572,56.9V15.627a3.443,3.443,0,0,1,3.439-3.439h.11a3.443,3.443,0,0,1,3.439,3.439V43.6a3.033,3.033,0,1,0,6.065,0V9.5a3.443,3.443,0,0,1,3.439-3.439h.172a3.439,3.439,0,0,1,3.439,3.448c-.02,10.145-.05,24.033-.067,34.111a3.033,3.033,0,0,0,3.027,3.039h.006a3.033,3.033,0,0,0,3.033-3.027c.013-6.82.049-25.117.067-31.645a3.445,3.445,0,0,1,3.439-3.431h.14a3.439,3.439,0,0,1,3.439,3.449c-.019,9.862-.051,25.457-.067,35.233a3.033,3.033,0,0,0,3.027,3.038h.006a3.033,3.033,0,0,0,3.033-3.027c0-1.5.034-20.564.049-21.214a3.439,3.439,0,0,1,6.879.019l-.057,31.168Z" transform="translate(-78.446)" fill="#fff"></path></svg>