<svg xmlns="http://www.w3.org/2000/svg" id="Icon" width="192.107" height="234.797" viewBox="0 0 192.107 234.797"><path id="Path_8955" data-name="Path 8955" d="M101.3,1.25A96.107,96.107,0,0,0,5.25,97.3c0,24.789,14.344,52.281,32.189,76.074,25.344,33.8,57.035,60.193,57.035,60.193a10.659,10.659,0,0,0,13.661,0s31.691-26.4,57.035-60.193c17.845-23.793,32.189-51.285,32.189-76.074A96.107,96.107,0,0,0,101.3,1.25Zm0,21.345A74.736,74.736,0,0,1,176.012,97.3c0,20.747-12.978,43.345-27.92,63.267-16.82,22.427-36.6,41.381-46.789,50.6C91.115,201.951,71.335,183,54.515,160.57,39.573,140.648,26.6,118.051,26.6,97.3A74.736,74.736,0,0,1,101.3,22.6Z" transform="translate(-5.25 -1.25)" fill="#efbd40" fill-rule="evenodd"></path><path id="Path_8956" data-name="Path 8956" d="M48.383,4.75A39.133,39.133,0,1,0,87.516,43.883,39.147,39.147,0,0,0,48.383,4.75Zm0,21.345A17.788,17.788,0,1,1,30.6,43.883,17.794,17.794,0,0,1,48.383,26.1Z" transform="translate(47.671 45.055)" fill="#efbd40" fill-rule="evenodd"></path></svg>