<svg xmlns="http://www.w3.org/2000/svg" id="llamada-telefonica" width="233.944" height="233.943" viewBox="0 0 233.944 233.943"><path id="Path_8959" data-name="Path 8959" d="M227.419,169.392c-.413-.343-47.171-33.61-59.8-31.574-6.09,1.076-9.568,5.233-16.548,13.545-1.123,1.341-3.829,4.546-5.919,6.831a97.153,97.153,0,0,1-12.875-5.24A106.834,106.834,0,0,1,82.99,103.662a97.146,97.146,0,0,1-5.24-12.875c2.293-2.1,5.505-4.8,6.878-5.958C92.9,77.889,97.05,74.4,98.126,68.305,100.333,55.68,66.894,8.938,66.551,8.517A17.85,17.85,0,0,0,53.248,1C39.694,1,1,51.188,1,59.649c0,.491.71,50.43,62.291,113.072,62.572,61.511,112.512,62.221,113,62.221,8.453,0,58.65-38.694,58.65-52.247a17.866,17.866,0,0,0-7.525-13.3ZM175.429,219.3c-6.769-.577-48.723-6.106-101.126-57.581-51.725-52.661-57.114-94.684-57.652-101.2a210.971,210.971,0,0,1,36.7-43.365c.312.312.725.78,1.255,1.388a275.98,275.98,0,0,1,27.871,47.28,92.684,92.684,0,0,1-7.923,7.1A78.237,78.237,0,0,0,62.761,84.018a7.8,7.8,0,0,0-1.333,5.856,89.037,89.037,0,0,0,7.525,20.595,122.508,122.508,0,0,0,56.521,56.513,88.813,88.813,0,0,0,20.595,7.533,7.728,7.728,0,0,0,5.856-1.333,78.567,78.567,0,0,0,11.128-11.837c2.449-2.917,5.716-6.808,6.956-7.907a274.077,274.077,0,0,1,47.382,27.9c.647.546,1.107.967,1.411,1.24a210.829,210.829,0,0,1-43.373,36.706Z" transform="translate(-1 -1)" fill="#efbd40"></path><path id="Path_8960" data-name="Path 8960" d="M63.789,69.385h15.6A62.455,62.455,0,0,0,17,7V22.6A46.835,46.835,0,0,1,63.789,69.385Z" transform="translate(107.77 39.789)" fill="#efbd40"></path><path id="Path_8961" data-name="Path 8961" d="M102.779,103.375h15.6A101.492,101.492,0,0,0,17,2V17.6A85.881,85.881,0,0,1,102.779,103.375Z" transform="translate(107.77 5.798)" fill="#efbd40"></path></svg>