<svg xmlns="http://www.w3.org/2000/svg" width="71.784" height="71.784" viewBox="0 0 71.784 71.784"><path id="Right" d="M35.892,0A35.892,35.892,0,1,0,71.784,35.892,35.933,35.933,0,0,0,35.892,0Zm0,67.3A31.405,31.405,0,1,1,67.3,35.892,31.441,31.441,0,0,1,35.892,67.3ZM50.937,34.306a2.242,2.242,0,0,1,0,3.172L39.721,48.694a2.243,2.243,0,0,1-3.172-3.172l7.387-7.387h-21.5a2.243,2.243,0,1,1,0-4.486h21.5l-7.387-7.387a2.243,2.243,0,0,1,3.172-3.172Z" transform="translate(71.784) rotate(90)" fill="#efbd40"></path></svg>